@startuml
class Joueur
abstract class TasDeCarte
class Pioche
class Défausse
class Main
class Table
abstract class Carte
class CarteNumero
abstract class CarteBonus
abstract class CarteSpecial
class CarteBonusMult
class CarteBonusAdd
class CarteSpecialStop
class CarteSpecial2ndChance
class CarteSpecialTroisALaSuite


Carte <|-- CarteNumero
Carte <|-- CarteBonus
Carte <|-- CarteSpecial
CarteSpecial <|-- CarteSpecialStop
CarteSpecial <|-- CarteSpecial2ndChance
CarteSpecial <|-- CarteSpecialTroisALaSuite
CarteBonus <|-- CarteBonusMult
CarteBonus <|-- CarteBonusAdd
TasDeCarte <|-- Pioche
TasDeCarte <|-- Défausse

Joueur " 1"-- " 1" Main : détient
CarteSpecial "0..9"..>"1 " Main : <<use>>
Table " 1" -- "3..10 " Joueur : contient
Table "1"-->"1 " Pioche : conserve
Table "1"-->"1 " Défausse : conserve
TasDeCarte "0.1"-->" 0..94" Carte : possède
Main "1" --> " 0..14" Carte : contient
Main "1"..>" 1" Table : <<use>>
Main "1"..>" 1" Table : <<use>>
Pioche "1"..>" 1" Table : <<use>>

@enduml
